<?xml version="1.0" encoding="UTF-8" standalone="no"?>
<!DOCTYPE svg PUBLIC "-//W3C//DTD SVG 1.1//EN" "http://www.w3.org/Graphics/SVG/1.1/DTD/svg11.dtd">
<svg version="1.1" xmlns="http://www.w3.org/2000/svg" xmlns:xlink="http://www.w3.org/1999/xlink" preserveAspectRatio="xMidYMid meet" viewBox="0 0 640 640" width="1000" height="1000"><defs><path d="M-1.84 32.67L-1.84 433.26L157.98 433.26C306.88 433.26 399.94 433.26 437.17 433.26C547.79 433.26 637.46 343.59 637.46 232.97C637.46 232.97 637.46 232.97 637.46 232.97C637.46 232.97 637.46 232.97 637.46 232.97C637.46 122.35 547.79 32.67 437.17 32.67C399.94 32.67 306.88 32.67 157.98 32.67L-1.84 32.67Z" id="e5k3Qqajyw"></path><path d="M320 135.77L320 453.24L399.37 453.24C441.69 453.24 468.15 453.24 478.73 453.24C566.39 453.24 637.46 382.17 637.46 294.5C637.46 294.5 637.46 294.5 637.46 294.5C637.46 294.5 637.46 294.5 637.46 294.5C637.46 206.84 566.39 135.77 478.73 135.77C468.15 135.77 441.69 135.77 399.37 135.77L320 135.77Z" id="bAdDLPc18"></path><path d="M259 257.57C259 278.12 242.32 294.79 221.78 294.79C201.24 294.79 184.56 278.12 184.56 257.57C184.56 237.03 201.24 220.35 221.78 220.35C242.32 220.35 259 237.03 259 257.57Z" id="a1oee4lUKe"></path><path d="M167.9 243.67C167.9 288.19 131.75 324.34 87.23 324.34C42.71 324.34 6.56 288.19 6.56 243.67C6.56 199.15 42.71 163 87.23 163C131.75 163 167.9 199.15 167.9 243.67Z" id="a5izGYFdK"></path><path d="M177.52 407.44C177.52 451.97 141.38 488.11 96.85 488.11C52.33 488.11 16.18 451.97 16.18 407.44C16.18 362.92 52.33 326.77 96.85 326.77C141.38 326.77 177.52 362.92 177.52 407.44Z" id="hfPmO3F4v"></path><path d="M633.16 244.42C633.16 288.95 597.02 325.09 552.49 325.09C507.97 325.09 471.82 288.95 471.82 244.42C471.82 199.9 507.97 163.75 552.49 163.75C597.02 163.75 633.16 199.9 633.16 244.42Z" id="a1SEKCnp09"></path><path d="M83.08 271.37L558.04 271.37L558.04 371.08L83.08 371.08L83.08 271.37Z" id="h30Ns7maxW"></path><path d="M-3.44 525.79C5.35 512.95 10.85 504.93 13.05 501.72C18.93 493.13 23.92 483.96 27.92 474.36C31.51 465.74 26.76 477.15 27.97 474.23C39.68 446.15 43.17 415.32 38.05 385.34C37.24 380.63 35.23 368.85 32 350L163.44 440.82C156.9 449.35 152.81 454.68 151.17 456.81C140.38 470.87 127.97 483.62 114.22 494.8C111.49 497.02 117.3 492.3 112.89 495.89C104.75 502.51 95.48 507.62 85.53 510.97C76.93 513.88 84.9 511.19 80.98 512.51C55.53 521.09 28.76 525.04 1.92 524.17C1.26 524.15 -0.37 524.1 -2.99 524.01" id="a2glBRenSb"></path><path d="M633.16 407.44C633.16 451.97 597.01 488.11 552.49 488.11C507.96 488.11 471.82 451.97 471.82 407.44C471.82 362.92 507.96 326.77 552.49 326.77C597.01 326.77 633.16 362.92 633.16 407.44Z" id="a42NCoMq4Y"></path></defs><g><g><g></g><g></g><g></g><g><use xlink:href="#a5izGYFdK" opacity="1" fill="#e7c5bc" fill-opacity="1"></use></g><g><use xlink:href="#hfPmO3F4v" opacity="1" fill="#e7c5bc" fill-opacity="1"></use></g><g><use xlink:href="#a1SEKCnp09" opacity="1" fill="#e7c5bc" fill-opacity="1"></use></g><g><use xlink:href="#h30Ns7maxW" opacity="1" fill="#e7c5bc" fill-opacity="1"></use></g><g></g><g><use xlink:href="#a42NCoMq4Y" opacity="1" fill="#e7c5bc" fill-opacity="1"></use></g></g></g></svg>