<?xml version="1.0" encoding="UTF-8" standalone="no"?>
<!DOCTYPE svg PUBLIC "-//W3C//DTD SVG 1.1//EN" "http://www.w3.org/Graphics/SVG/1.1/DTD/svg11.dtd">
<svg version="1.1" xmlns="http://www.w3.org/2000/svg" xmlns:xlink="http://www.w3.org/1999/xlink" preserveAspectRatio="xMidYMid meet" viewBox="0 0 640 640" width="640" height="640"><defs><path d="M320 135L320 452.46L399.37 452.46C441.69 452.46 468.15 452.46 478.73 452.46C566.39 452.46 637.46 381.39 637.46 293.73C637.46 293.73 637.46 293.73 637.46 293.73C637.46 293.73 637.46 293.73 637.46 293.73C637.46 206.07 566.39 135 478.73 135C468.15 135 441.69 135 399.37 135L320 135Z" id="a2RchIkE55"></path><path d="M324.34 135L324.34 452.46L244.97 452.46C202.65 452.46 176.19 452.46 165.61 452.46C77.94 452.46 6.88 381.39 6.88 293.73C6.88 293.73 6.88 293.73 6.88 293.73C6.88 293.73 6.88 293.73 6.88 293.73C6.88 206.07 77.94 135 165.61 135C176.19 135 202.65 135 244.97 135L324.34 135Z" id="c58vnBLNV"></path><path d="M259 257.57C259 278.12 242.32 294.79 221.78 294.79C201.24 294.79 184.56 278.12 184.56 257.57C184.56 237.03 201.24 220.35 221.78 220.35C242.32 220.35 259 237.03 259 257.57Z" id="b1rEJaVIJS"></path><path d="M263.56 332.44C263.56 352.98 246.89 369.66 226.34 369.66C205.8 369.66 189.12 352.98 189.12 332.44C189.12 311.9 205.8 295.22 226.34 295.22C246.89 295.22 263.56 311.9 263.56 332.44Z" id="n7WwVvsZoV"></path><path d="M474.66 257.57C474.66 278.11 457.98 294.79 437.44 294.79C416.9 294.79 400.22 278.11 400.22 257.57C400.22 237.02 416.9 220.35 437.44 220.35C457.98 220.35 474.66 237.02 474.66 257.57Z" id="d7oJl361q"></path><path d="M474.44 330.91C474.44 351.45 457.76 368.13 437.22 368.13C416.68 368.13 400 351.45 400 330.91C400 310.37 416.68 293.69 437.22 293.69C457.76 293.69 474.44 310.37 474.44 330.91Z" id="b1BOY5F0ix"></path><path d="M220.82 271.37L439.95 271.37L439.95 317.37L220.82 317.37L220.82 271.37Z" id="c3OuhzKZby"></path><path d="M3.11 525.79C11.91 512.95 17.41 504.93 19.6 501.72C25.49 493.13 30.47 483.96 34.47 474.36C38.07 465.74 33.31 477.15 34.53 474.23C46.23 446.15 49.73 415.32 44.6 385.34C43.79 380.63 41.78 368.85 38.56 350L170 440.82C163.45 449.35 159.36 454.68 157.73 456.81C146.93 470.87 134.53 483.62 120.78 494.8C118.05 497.02 123.85 492.3 119.45 495.89C111.3 502.51 102.04 507.62 92.09 510.97C83.48 513.88 91.45 511.19 87.53 512.51C62.09 521.09 35.31 525.04 8.47 524.17C7.82 524.15 6.18 524.1 3.56 524.01" id="ab6aG2bpT"></path></defs><g><g><g><use xlink:href="#a2RchIkE55" opacity="1" fill="#e7c5bc" fill-opacity="1"></use><g><use xlink:href="#a2RchIkE55" opacity="1" fill-opacity="0" stroke="#e7c5bc" stroke-width="1" stroke-opacity="1"></use></g></g><g><use xlink:href="#c58vnBLNV" opacity="1" fill="#e7c5bc" fill-opacity="1"></use><g><use xlink:href="#c58vnBLNV" opacity="1" fill-opacity="0" stroke="#e7c5bc" stroke-width="1" stroke-opacity="1"></use></g></g><g><use xlink:href="#b1rEJaVIJS" opacity="1" fill="#ffffff" fill-opacity="1"></use></g><g><use xlink:href="#n7WwVvsZoV" opacity="1" fill="#ffffff" fill-opacity="1"></use></g><g><use xlink:href="#d7oJl361q" opacity="1" fill="#ffffff" fill-opacity="1"></use></g><g><use xlink:href="#b1BOY5F0ix" opacity="1" fill="#ffffff" fill-opacity="1"></use></g><g><use xlink:href="#c3OuhzKZby" opacity="1" fill="#ffffff" fill-opacity="1"></use></g><g><use xlink:href="#ab6aG2bpT" opacity="1" fill="#e7c5bc" fill-opacity="1"></use><g><use xlink:href="#ab6aG2bpT" opacity="1" fill-opacity="0" stroke="#e7c5bc" stroke-width="1" stroke-opacity="1"></use></g></g></g></g></svg>