<?xml version="1.0" encoding="UTF-8" standalone="no"?>
<!DOCTYPE svg PUBLIC "-//W3C//DTD SVG 1.1//EN" "http://www.w3.org/Graphics/SVG/1.1/DTD/svg11.dtd">
<svg version="1.1" xmlns="http://www.w3.org/2000/svg" xmlns:xlink="http://www.w3.org/1999/xlink" preserveAspectRatio="xMidYMid meet" viewBox="0 0 640 640" width="640" height="640"><defs><path d="M320 135L320 452.46L399.37 452.46C441.69 452.46 468.15 452.46 478.73 452.46C566.39 452.46 637.46 381.39 637.46 293.73C637.46 293.73 637.46 293.73 637.46 293.73C637.46 293.73 637.46 293.73 637.46 293.73C637.46 206.07 566.39 135 478.73 135C468.15 135 441.69 135 399.37 135L320 135Z" id="a2RchIkE55"></path><path d="M324.34 135L324.34 452.46L244.97 452.46C202.65 452.46 176.19 452.46 165.61 452.46C77.94 452.46 6.88 381.39 6.88 293.73C6.88 293.73 6.88 293.73 6.88 293.73C6.88 293.73 6.88 293.73 6.88 293.73C6.88 206.07 77.94 135 165.61 135C176.19 135 202.65 135 244.97 135L324.34 135Z" id="c58vnBLNV"></path><path d="M98.37 360.4L38.6 360.4C40.37 363.55 41.48 365.52 41.92 366.31C52.83 385.72 58.95 407.45 59.77 429.7C59.77 429.7 59.24 415.41 59.42 420.3C59.65 426.52 58.78 432.74 56.84 438.66C54.68 445.23 58.24 434.38 57.85 435.55C50.06 459.34 38.17 481.58 22.72 501.28C22.51 501.54 21.99 502.2 21.17 503.25L0 535C5.28 533.96 8.58 533.31 9.9 533.05C47.93 525.57 84.67 512.63 119 494.63C119.9 494.16 122.15 492.98 125.76 491.08C127.17 490.08 128.06 489.45 128.41 489.19C136.13 483.68 132.22 471.51 122.74 471.51C107.41 471.51 97.76 471.51 83.91 471.51C60.02 471.51 37.46 482.48 22.72 501.28C22.51 501.54 21.99 502.2 21.17 503.25L0 535C5.28 533.96 8.58 533.31 9.9 533.05C47.93 525.57 84.67 512.63 119 494.63C119.9 494.16 122.15 492.98 125.76 491.08C127.17 490.08 128.06 489.45 128.41 489.19C144.44 477.74 156.15 461.22 161.64 442.3C162.17 440.48 163.49 435.93 165.61 428.65L98.37 360.4Z" id="bSfytH5Dv"></path><path d="M259 257.57C259 278.12 242.32 294.79 221.78 294.79C201.24 294.79 184.56 278.12 184.56 257.57C184.56 237.03 201.24 220.35 221.78 220.35C242.32 220.35 259 237.03 259 257.57Z" id="b1rEJaVIJS"></path><path d="M263.56 332.44C263.56 352.98 246.89 369.66 226.34 369.66C205.8 369.66 189.12 352.98 189.12 332.44C189.12 311.9 205.8 295.22 226.34 295.22C246.89 295.22 263.56 311.9 263.56 332.44Z" id="n7WwVvsZoV"></path><path d="M474.66 257.57C474.66 278.11 457.98 294.79 437.44 294.79C416.9 294.79 400.22 278.11 400.22 257.57C400.22 237.02 416.9 220.35 437.44 220.35C457.98 220.35 474.66 237.02 474.66 257.57Z" id="d7oJl361q"></path><path d="M474.44 330.91C474.44 351.45 457.76 368.13 437.22 368.13C416.68 368.13 400 351.45 400 330.91C400 310.37 416.68 293.69 437.22 293.69C457.76 293.69 474.44 310.37 474.44 330.91Z" id="b1BOY5F0ix"></path><path d="M220.82 271.37L439.95 271.37L439.95 317.37L220.82 317.37L220.82 271.37Z" id="c3OuhzKZby"></path></defs><g><g><g><use xlink:href="#a2RchIkE55" opacity="1" fill="#e7c5bc" fill-opacity="1"></use><g><use xlink:href="#a2RchIkE55" opacity="1" fill-opacity="0" stroke="#e7c5bc" stroke-width="1" stroke-opacity="1"></use></g></g><g><use xlink:href="#c58vnBLNV" opacity="1" fill="#e7c5bc" fill-opacity="1"></use><g><use xlink:href="#c58vnBLNV" opacity="1" fill-opacity="0" stroke="#e7c5bc" stroke-width="1" stroke-opacity="1"></use></g></g><g><use xlink:href="#bSfytH5Dv" opacity="1" fill="#e7c5bc" fill-opacity="1"></use><g><use xlink:href="#bSfytH5Dv" opacity="1" fill-opacity="0" stroke="#e7c5bc" stroke-width="1" stroke-opacity="1"></use></g></g><g><use xlink:href="#b1rEJaVIJS" opacity="1" fill="#ffffff" fill-opacity="1"></use></g><g><use xlink:href="#n7WwVvsZoV" opacity="1" fill="#ffffff" fill-opacity="1"></use></g><g><use xlink:href="#d7oJl361q" opacity="1" fill="#ffffff" fill-opacity="1"></use></g><g><use xlink:href="#b1BOY5F0ix" opacity="1" fill="#ffffff" fill-opacity="1"></use></g><g><use xlink:href="#c3OuhzKZby" opacity="1" fill="#ffffff" fill-opacity="1"></use></g></g></g></svg>